<svg xmlns="http://www.w3.org/2000/svg" viewBox="0 0 19.2 19.2"><defs><style>.cls-1{fill:#326e78;}</style></defs><title>Asset 2</title><g id="Layer_2" data-name="Layer 2"><g id="Layer_4" data-name="Layer 4"><path class="cls-1" d="M3.2,1A2.21,2.21,0,0,1,5.4,3.2V9.6A2.2,2.2,0,0,1,1,9.6V3.2A2.21,2.21,0,0,1,3.2,1m0-1A3.2,3.2,0,0,0,0,3.2V9.6a3.2,3.2,0,0,0,6.4,0V3.2A3.2,3.2,0,0,0,3.2,0Z"/><path class="cls-1" d="M16,1a2.2,2.2,0,0,1,0,4.4H9.6A2.2,2.2,0,1,1,9.6,1H16m0-1H9.6a3.2,3.2,0,1,0,0,6.4H16A3.2,3.2,0,0,0,16,0Z"/><path class="cls-1" d="M16,7.4a2.21,2.21,0,0,1,2.2,2.2V16a2.2,2.2,0,0,1-4.4,0V9.6A2.21,2.21,0,0,1,16,7.4m0-1a3.2,3.2,0,0,0-3.2,3.2V16a3.2,3.2,0,0,0,6.4,0V9.6A3.2,3.2,0,0,0,16,6.4Z"/><path class="cls-1" d="M9.6,13.8a2.2,2.2,0,1,1,0,4.4H3.2a2.2,2.2,0,0,1,0-4.4H9.6m0-1H3.2a3.2,3.2,0,0,0,0,6.4H9.6a3.2,3.2,0,1,0,0-6.4Z"/></g></g></svg>